HIERARCHY
ROOT joint_Root
{
	OFFSET 0.0 0.0 0.0
	CHANNELS 6 Xposition Yposition Zposition Zrotation Xrotation Yrotation 
	JOINT Hips
	{
		OFFSET 4.5925 91.4895 -427.239
		CHANNELS 6 Xposition Yposition Zposition Zrotation Xrotation Yrotation 
		JOINT Spine
		{
			OFFSET 15.7357 0.0 0.0
			CHANNELS 6 Xposition Yposition Zposition Zrotation Xrotation Yrotation 
			JOINT Chest
			{
				OFFSET 8.98455 -0.406207 0.0
				CHANNELS 6 Xposition Yposition Zposition Zrotation Xrotation Yrotation 
				JOINT Neck
				{
					OFFSET 16.3773 0.0 0.0
					CHANNELS 6 Xposition Yposition Zposition Zrotation Xrotation Yrotation 
					JOINT Head
					{
						OFFSET 6.45672 0.0 0.0
						CHANNELS 6 Xposition Yposition Zposition Zrotation Xrotation Yrotation 
						End Site
						{
							OFFSET 0.0 0.0 0.0
						}
					}
				}
				JOINT Shoulder_L
				{
					OFFSET 12.9942 -0.242716 4.98039
					CHANNELS 6 Xposition Yposition Zposition Zrotation Xrotation Yrotation 
					JOINT UpperArm_L
					{
						OFFSET 5.34809 0.0 0.0
						CHANNELS 6 Xposition Yposition Zposition Zrotation Xrotation Yrotation 
						JOINT LowerArm_L
						{
							OFFSET 24.3286 1.87007e-05 0.0
							CHANNELS 6 Xposition Yposition Zposition Zrotation Xrotation Yrotation 
							JOINT Hand_L
							{
								OFFSET 22.2916 0.0 0.0
								CHANNELS 6 Xposition Yposition Zposition Zrotation Xrotation Yrotation 
								End Site
								{
									OFFSET 0.0 0.0 0.0
								}
							}
						}
					}
				}
				JOINT Shoulder_R
				{
					OFFSET 12.9945 -0.242716 -4.98039
					CHANNELS 6 Xposition Yposition Zposition Zrotation Xrotation Yrotation 
					JOINT UpperArm_R
					{
						OFFSET -5.34813 0.0 0.0
						CHANNELS 6 Xposition Yposition Zposition Zrotation Xrotation Yrotation 
						JOINT LowerArm_R
						{
							OFFSET -24.3289 0.000322201 0.0
							CHANNELS 6 Xposition Yposition Zposition Zrotation Xrotation Yrotation 
							JOINT Hand_R
							{
								OFFSET -22.2915 -0.000108084 0.0
								CHANNELS 6 Xposition Yposition Zposition Zrotation Xrotation Yrotation 
								End Site
								{
									OFFSET 0.0 0.0 0.0
								}
							}
						}
					}
				}
			}
		}
		JOINT UpperLeg_L
		{
			OFFSET -2.19248 -6.46944 0.0
			CHANNELS 6 Xposition Yposition Zposition Zrotation Xrotation Yrotation 
			JOINT LowerLeg_L
			{
				OFFSET 39.0811 0.0 -1.23785e-05
				CHANNELS 6 Xposition Yposition Zposition Zrotation Xrotation Yrotation 
				JOINT Foot_L
				{
					OFFSET 40.9854 0.0 -1.26872e-05
					CHANNELS 6 Xposition Yposition Zposition Zrotation Xrotation Yrotation 
					JOINT Toes_L
					{
						OFFSET 11.7543 0.0 0.0
						CHANNELS 6 Xposition Yposition Zposition Zrotation Xrotation Yrotation 
						End Site
						{
							OFFSET 0.0 0.0 0.0
						}
					}
				}
			}
		}
		JOINT UpperLeg_R
		{
			OFFSET -2.19251 6.46944 0.0
			CHANNELS 6 Xposition Yposition Zposition Zrotation Xrotation Yrotation 
			JOINT LowerLeg_R
			{
				OFFSET -39.0811 -0.00228153 -0.0401928
				CHANNELS 6 Xposition Yposition Zposition Zrotation Xrotation Yrotation 
				JOINT Foot_R
				{
					OFFSET -40.9854 0.0 0.0
					CHANNELS 6 Xposition Yposition Zposition Zrotation Xrotation Yrotation 
					JOINT Toes_R
					{
						OFFSET -11.7543 0.0 0.0
						CHANNELS 6 Xposition Yposition Zposition Zrotation Xrotation Yrotation 
						End Site
						{
							OFFSET 0.0 0.0 0.0
						}
					}
				}
			}
		}
	}
}
MOTION
Frames:	6
Frame Time:	0.0333333
0.000000 0.000000 0.000000 0.000000 0.000000 -0.000000 3.580220 90.917100 1.562960 86.729300 -21.539100 3.720590 15.735700 0.000005 -0.000001 68.229400 85.289700 -63.443400 8.984550 -0.406207 -0.000000 1.161110 -3.767780 9.605350 16.377300 -0.000001 -0.000001 6.034110 0.805690 -1.263580 6.456720 -0.000001 -0.000000 1.003230 3.027140 1.670950 12.994200 -0.242716 4.980390 -83.898300 -12.808600 -64.256800 5.348090 -0.000007 -0.000001 -22.448400 -65.987000 -63.080500 24.328600 0.000019 0.000005 10.113600 10.481200 -44.437900 22.291600 -0.000001 0.000005 21.341200 5.327670 -0.717562 12.994500 -0.242716 -4.980390 87.759200 7.671230 -73.662900 -5.348130 -0.000001 -0.000004 -53.833300 17.747800 -2.506620 -24.328900 0.000322 -0.000009 0.553781 0.783915 -35.294000 -22.291500 -0.000108 -0.000004 20.706700 5.409520 -3.249300 -2.192480 -6.469440 -0.000000 -175.678000 -23.290800 -1.830170 39.081100 -0.000007 -0.000012 -0.162979 0.289538 29.375100 40.985400 -0.000006 -0.000013 0.651346 -2.976790 -72.913600 11.754300 -0.000000 0.000003 -0.000087 -0.000913 -16.612700 -2.192510 6.469440 -0.000001 175.719000 15.161100 174.213000 -39.081100 -0.002282 -0.040193 -0.061738 0.122858 27.897800 -40.985400 0.000008 0.000006 5.436230 26.382600 -69.239700 -11.754300 -0.000006 -0.000006 -0.001171 -0.017814 -17.297500
0.000000 0.000000 0.000000 0.000000 0.000000 -0.000000 3.468490 90.936700 1.549190 86.953800 -20.777300 3.769430 15.735700 0.000005 -0.000001 67.810800 85.323200 -63.197200 8.984550 -0.406207 -0.000000 1.067560 -3.800240 9.258290 16.377300 -0.000001 -0.000001 5.961370 0.660769 -1.297880 6.456720 -0.000001 -0.000000 0.995907 2.926720 1.498000 12.994200 -0.242716 4.980390 -84.193000 -12.228600 -64.352600 5.348090 -0.000007 -0.000001 -24.154000 -65.143000 -63.628700 24.328600 0.000019 0.000005 9.757970 9.197740 -47.096000 22.291600 -0.000001 0.000005 21.508000 5.331300 -0.823576 12.994500 -0.242716 -4.980390 87.634000 7.964670 -73.395700 -5.348130 -0.000001 -0.000004 -53.877500 17.378100 -2.637780 -24.328900 0.000322 -0.000009 0.479221 0.675639 -35.411400 -22.291500 -0.000108 -0.000004 20.728600 5.408310 -3.209570 -2.192480 -6.469440 -0.000000 -175.857000 -22.775900 -1.872460 39.081100 -0.000007 -0.000012 -0.162596 0.290652 29.223700 40.985400 -0.000006 -0.000013 0.668648 -2.722690 -72.771900 11.754300 -0.000000 0.000003 -0.000090 -0.000938 -16.613600 -2.192510 6.469440 -0.000001 175.617000 15.290000 174.272000 -39.081100 -0.002282 -0.040193 -0.058968 0.117304 27.963000 -40.985400 0.000008 0.000006 5.550760 25.722000 -69.405700 -11.754300 -0.000006 -0.000006 -0.001070 -0.016393 -17.239800
0.000000 0.000000 0.000000 0.000000 0.000000 -0.000000 3.293330 90.979200 1.492200 87.176500 -19.745300 3.777260 15.735700 0.000005 -0.000001 67.276000 85.374100 -62.885400 8.984550 -0.406207 -0.000000 0.932463 -3.833890 8.808440 16.377300 -0.000001 -0.000001 5.818010 0.573172 -1.354280 6.456720 -0.000001 -0.000000 1.100100 2.903650 1.362430 12.994200 -0.242716 4.980390 -84.549900 -11.622300 -64.658000 5.348090 -0.000007 -0.000001 -26.375400 -63.474400 -63.089600 24.328600 0.000019 0.000005 9.238280 7.248650 -52.206500 22.291600 -0.000001 0.000005 21.458100 5.347670 -1.307760 12.994500 -0.242716 -4.980390 87.497000 8.341840 -73.232000 -5.348130 -0.000001 -0.000004 -54.186200 17.096100 -2.489580 -24.328900 0.000322 -0.000009 0.131274 0.187026 -35.280900 -22.291500 -0.000108 -0.000004 20.942700 5.410160 -3.270720 -2.192480 -6.469440 -0.000000 -175.935000 -22.431400 -1.951140 39.081100 -0.000007 -0.000012 -0.155031 0.279552 29.011600 40.985400 -0.000006 -0.000013 0.757943 -2.032950 -72.543900 11.754300 -0.000000 0.000003 -0.000101 -0.001040 -16.617500 -2.192510 6.469440 -0.000001 175.516000 15.778500 174.399000 -39.081100 -0.002282 -0.040193 -0.063072 0.125485 27.877900 -40.985400 0.000008 0.000006 5.518730 25.173000 -69.432800 -11.754300 -0.000006 -0.000006 -0.000987 -0.015226 -17.192400
0.000000 0.000000 0.000000 0.000000 0.000000 -0.000000 3.061120 91.039500 1.419360 87.390200 -18.426200 3.824490 15.735700 0.000005 -0.000001 66.461000 85.381800 -62.308100 8.984550 -0.406207 -0.000000 0.860816 -3.937240 8.331650 16.377300 -0.000001 -0.000001 5.409180 0.476050 -1.284900 6.456720 -0.000001 -0.000000 1.409800 3.004580 0.905244 12.994200 -0.242716 4.980390 -85.062000 -10.804800 -65.256400 5.348090 -0.000007 -0.000001 -27.284000 -60.924400 -59.782300 24.328600 0.000019 0.000005 7.910350 4.634500 -59.843400 22.291600 -0.000001 0.000005 21.019700 5.360030 -1.680490 12.994500 -0.242716 -4.980390 87.384300 8.611940 -73.033900 -5.348130 -0.000001 -0.000004 -54.814800 17.011300 -2.381940 -24.328900 0.000322 -0.000009 -0.377900 -0.541884 -34.821900 -22.291500 -0.000108 -0.000004 20.820700 5.405140 -3.105270 -2.192480 -6.469440 -0.000000 -175.946000 -21.923700 -1.974420 39.081100 -0.000007 -0.000012 -0.150751 0.274989 28.732100 40.985400 -0.000006 -0.000013 0.848343 -1.194900 -72.253600 11.754300 -0.000000 0.000003 -0.000107 -0.001086 -16.619200 -2.192510 6.469440 -0.000001 175.424000 16.500000 174.680000 -39.081100 -0.002282 -0.040193 -0.067657 0.135327 27.672000 -40.985400 0.000008 0.000006 5.394770 24.588200 -69.383400 -11.754300 -0.000006 -0.000006 -0.000973 -0.015019 -17.183900
0.000000 0.000000 0.000000 0.000000 0.000000 -0.000000 2.767520 91.103800 1.325500 87.564800 -16.902300 3.977050 15.735700 0.000005 -0.000001 66.056800 85.324700 -62.192500 8.984550 -0.406207 -0.000000 0.930442 -4.023510 7.757940 16.377300 -0.000001 -0.000001 4.866120 0.268567 -1.149740 6.456720 -0.000001 -0.000000 1.514930 3.016000 0.558676 12.994200 -0.242716 4.980390 -85.715700 -9.722900 -66.079300 5.348090 -0.000007 -0.000001 -27.040700 -57.445100 -54.422800 24.328600 0.000019 0.000005 6.530590 2.478080 -69.316400 22.291600 -0.000001 0.000005 20.250200 5.357680 -1.607750 12.994500 -0.242716 -4.980390 87.272100 8.815950 -72.730600 -5.348130 -0.000001 -0.000004 -55.855900 17.182300 -2.335000 -24.328900 0.000322 -0.000009 -1.117550 -1.652630 -34.052900 -22.291500 -0.000108 -0.000004 20.683100 5.400150 -2.942370 -2.192480 -6.469440 -0.000000 -175.870000 -21.195500 -1.929650 39.081100 -0.000007 -0.000012 -0.143055 0.263694 28.480200 40.985400 -0.000006 -0.000013 0.892855 -0.380997 -71.939800 11.754300 -0.000000 0.000003 -0.000111 -0.001127 -16.620700 -2.192510 6.469440 -0.000001 175.356000 17.447900 175.137000 -39.081100 -0.002282 -0.040193 -0.069805 0.140800 27.441100 -40.985400 0.000008 0.000006 5.402180 23.999200 -69.389600 -11.754300 -0.000006 -0.000006 -0.000896 -0.013914 -17.139000
0.000000 0.000000 0.000000 0.000000 0.000000 -0.000000 2.431070 91.149100 1.237420 87.722400 -15.435600 4.164650 15.735700 0.000005 -0.000001 66.715000 85.247100 -63.190800 8.984550 -0.406207 -0.000000 1.100310 -3.960870 7.083180 16.377300 -0.000001 -0.000001 4.232170 -0.029500 -0.850075 6.456720 -0.000001 -0.000000 1.459820 2.833270 0.288728 12.994200 -0.242716 4.980390 -86.388300 -8.584630 -67.080000 5.348090 -0.000007 -0.000001 -26.928700 -52.898000 -48.107700 24.328600 0.000019 0.000005 7.409160 1.359480 -79.647600 22.291600 -0.000001 0.000005 19.581000 5.343360 -1.176980 12.994500 -0.242716 -4.980390 87.197600 8.917180 -72.474400 -5.348130 -0.000001 -0.000004 -57.337800 17.590100 -2.325570 -24.328900 0.000322 -0.000009 -1.881760 -2.905860 -32.935400 -22.291500 -0.000108 -0.000004 20.677000 5.400400 -2.950600 -2.192480 -6.469440 -0.000000 -175.724000 -20.467700 -1.887300 39.081100 -0.000007 -0.000012 -0.143685 0.266431 28.337900 40.985400 -0.000006 -0.000013 0.891786 0.431005 -71.675400 11.754300 -0.000000 0.000003 -0.000118 -0.001181 -16.622700 -2.192510 6.469440 -0.000001 175.287000 18.287000 175.612000 -39.081100 -0.002282 -0.040193 -0.084556 0.170591 27.250900 -40.985400 0.000008 0.000006 5.142150 23.434400 -69.305200 -11.754300 -0.000006 -0.000006 -0.000877 -0.013639 -17.127900
